<?xml version="1.0" encoding="UTF-8" standalone="no"?>
<!DOCTYPE svg PUBLIC "-//W3C//DTD SVG 1.1//EN" "http://www.w3.org/Graphics/SVG/1.1/DTD/svg11.dtd">
<svg width="100%" height="100%" viewBox="0 0 2400 500" version="1.1" xmlns="http://www.w3.org/2000/svg" xmlns:xlink="http://www.w3.org/1999/xlink" xml:space="preserve" xmlns:serif="http://www.serif.com/" style="fill-rule:evenodd;clip-rule:evenodd;stroke-linecap:round;stroke-linejoin:round;">
    <g transform="matrix(1,0,0,1,0,-627)">
        <g id="Artboard1" transform="matrix(1.04348,0,0,1.11111,0,627)">
            <rect x="0" y="0" width="2300" height="450" style="fill:none;"/>
            <g transform="matrix(22.1375,0,0,20.79,-7395.33,-3005.92)">
                <path d="M352.808,145.908C355.002,145.908 356.808,147.713 356.808,149.908L356.808,157.908C356.808,160.102 355.002,161.908 352.808,161.908L348.084,161.908L343.322,164.765C343.166,164.858 342.988,164.907 342.807,164.907C342.301,164.907 341.871,164.524 341.814,164.022L341.808,163.908L341.808,161.908L340.808,161.908C338.689,161.908 336.918,160.224 336.813,158.108L336.808,157.908L336.808,149.908C336.808,147.713 338.613,145.908 340.808,145.908L352.808,145.908Z" style="fill:rgb(244,155,144);"/>
            </g>
            <g transform="matrix(2.43222,0,0,2.28417,-451.613,-311.547)">
                <g transform="matrix(8.625,0,0,8.625,198.163,150.882)">
                    <path d="M6,6C6,4.903 6.903,4 8,4L16,4C17.097,4 18,4.903 18,6L18,10C18,11.097 17.097,12 16,12L8,12C6.903,12 6,11.097 6,10L6,6Z" style="fill:none;fill-rule:nonzero;stroke:white;stroke-width:2px;"/>
                </g>
                <g transform="matrix(8.625,0,0,8.625,198.163,150.882)">
                    <path d="M12,2L12,4" style="fill:none;fill-rule:nonzero;stroke:white;stroke-width:2px;"/>
                </g>
                <g transform="matrix(8.625,0,0,8.625,198.163,150.882)">
                    <path d="M10,8L10,8.01" style="fill:none;fill-rule:nonzero;stroke:white;stroke-width:2px;"/>
                </g>
                <g transform="matrix(8.625,0,0,8.625,198.163,150.882)">
                    <path d="M14,8L14,8.01" style="fill:none;fill-rule:nonzero;stroke:white;stroke-width:2px;"/>
                </g>
            </g>
            <g transform="matrix(8.53031,0,0,8.01113,586.508,332.826)">
                <path d="M17.375,0.5C12.692,0.5 8.875,-1.033 5.925,-4.1C2.975,-7.167 1.5,-11.642 1.5,-17.525C1.5,-23.408 2.992,-27.867 5.975,-30.9C8.958,-33.933 12.808,-35.45 17.525,-35.45C22.242,-35.45 26.05,-33.958 28.95,-30.975C31.85,-27.992 33.3,-23.475 33.3,-17.425C33.3,-11.375 31.817,-6.875 28.85,-3.925C25.883,-0.975 22.058,0.5 17.375,0.5ZM17.4,-25.85C15.8,-25.85 14.458,-25.117 13.375,-23.65C12.292,-22.183 11.75,-20.125 11.75,-17.475C11.75,-14.825 12.267,-12.792 13.3,-11.375C14.333,-9.958 15.692,-9.25 17.375,-9.25C19.058,-9.25 20.425,-9.967 21.475,-11.4C22.525,-12.833 23.05,-14.883 23.05,-17.55C23.05,-20.217 22.508,-22.267 21.425,-23.7C20.342,-25.133 19,-25.85 17.4,-25.85Z" style="fill:rgb(50,56,62);fill-rule:nonzero;"/>
            </g>
            <g transform="matrix(8.53031,0,0,8.01113,586.508,332.826)">
                <path d="M38.1,-9C40.8,-7.367 42.933,-6.55 44.5,-6.55C45.5,-6.55 46,-6.9 46,-7.6C46,-8.1 45.133,-8.75 43.4,-9.55C39.233,-11.25 37.15,-14.033 37.15,-17.9C37.15,-20.367 38.05,-22.25 39.85,-23.55C41.65,-24.85 43.808,-25.5 46.325,-25.5C48.842,-25.5 50.975,-25.233 52.725,-24.7C54.475,-24.167 55.35,-23.467 55.35,-22.6C55.35,-21.867 54.992,-20.9 54.275,-19.7C53.558,-18.5 53.067,-17.85 52.8,-17.75C51.367,-18.55 49.817,-18.95 48.15,-18.95C47.25,-18.95 46.8,-18.633 46.8,-18C46.8,-17.6 46.975,-17.258 47.325,-16.975C47.675,-16.692 48.317,-16.342 49.25,-15.925C50.183,-15.508 50.958,-15.133 51.575,-14.8C52.192,-14.467 52.883,-14 53.65,-13.4C55.25,-12.133 56.05,-10.483 56.05,-8.45C56.05,-5.783 55.167,-3.625 53.4,-1.975C51.633,-0.325 48.967,0.5 45.4,0.5C43.033,0.5 40.883,0.1 38.95,-0.7C37.017,-1.5 36.05,-2.6 36.05,-4C36.05,-4.933 36.275,-5.917 36.725,-6.95C37.175,-7.983 37.633,-8.667 38.1,-9Z" style="fill:rgb(50,56,62);fill-rule:nonzero;"/>
            </g>
            <g transform="matrix(8.53031,0,0,8.01113,586.508,332.826)">
                <path d="M71.05,-0.3C71.05,0.1 69.65,0.3 66.85,0.3C63.517,0.167 61.85,-0.05 61.85,-0.35L61.85,-18.05L59.3,-18.05C58.633,-18.05 58.3,-19.2 58.3,-21.5C58.3,-22.1 58.358,-22.833 58.475,-23.7C58.592,-24.567 58.833,-25 59.2,-25L61.85,-25L61.85,-29.4C61.85,-30.067 63.258,-30.4 66.075,-30.4C68.892,-30.4 70.3,-30.133 70.3,-29.6L70.3,-26.4L70.35,-25L74.6,-25C75.167,-25 75.45,-23.833 75.45,-21.5C75.45,-19.167 75.167,-18 74.6,-18L71.05,-18L71.05,-0.3Z" style="fill:rgb(50,56,62);fill-rule:nonzero;"/>
            </g>
            <g transform="matrix(8.53031,0,0,8.01113,586.508,332.826)">
                <path d="M88.9,-0.05C88.9,0.183 87.383,0.3 84.35,0.3C81.317,0.233 79.8,0.1 79.8,-0.1L79.8,-16.7L78.45,-16.7C77.917,-16.7 77.492,-17.025 77.175,-17.675C76.858,-18.325 76.7,-19.133 76.7,-20.1C76.7,-23.7 77.767,-25.5 79.9,-25.5C81.4,-25.5 82.65,-25.042 83.65,-24.125C84.65,-23.208 85.15,-22.167 85.15,-21C85.85,-22.367 86.792,-23.458 87.975,-24.275C89.158,-25.092 90.367,-25.5 91.6,-25.5C93.533,-25.5 94.7,-25 95.1,-24C95.2,-23.733 95.25,-23.342 95.25,-22.825C95.25,-22.308 95.092,-21.383 94.775,-20.05C94.458,-18.717 94.133,-17.75 93.8,-17.15C93.467,-16.55 93.267,-16.25 93.2,-16.25C93.133,-16.25 92.825,-16.375 92.275,-16.625C91.725,-16.875 91.233,-17 90.8,-17C89.533,-17 88.9,-16 88.9,-14L88.9,-0.05Z" style="fill:rgb(50,56,62);fill-rule:nonzero;"/>
            </g>
            <g transform="matrix(8.53031,0,0,8.01113,586.508,332.826)">
                <path d="M100.9,-18.15C99.967,-19.817 99.5,-21.175 99.5,-22.225C99.5,-23.275 99.783,-23.95 100.35,-24.25C102.25,-25.083 104.858,-25.5 108.175,-25.5C111.492,-25.5 113.833,-24.725 115.2,-23.175C116.567,-21.625 117.25,-19.333 117.25,-16.3L117.25,-8.4L118.95,-8.4C119.517,-8.4 119.958,-8.067 120.275,-7.4C120.592,-6.733 120.75,-5.817 120.75,-4.65C120.75,-3.483 120.458,-2.333 119.875,-1.2C119.292,-0.067 118.5,0.5 117.5,0.5C115.7,0.5 114.25,0.017 113.15,-0.95C112.65,-1.35 112.267,-1.833 112,-2.4C110.467,-0.467 108.083,0.5 104.85,0.5C102.417,0.5 100.367,-0.367 98.7,-2.1C97.033,-3.833 96.2,-5.883 96.2,-8.25C96.2,-13.683 99.45,-16.4 105.95,-16.4L108.7,-16.4L108.7,-16.9C108.7,-17.767 108.558,-18.325 108.275,-18.575C107.992,-18.825 107.333,-18.95 106.3,-18.95C105.033,-18.95 103.233,-18.683 100.9,-18.15ZM104.9,-8.95C104.9,-8.217 105.1,-7.658 105.5,-7.275C105.9,-6.892 106.408,-6.7 107.025,-6.7C107.642,-6.7 108.2,-6.95 108.7,-7.45L108.7,-11.3L107.3,-11.3C105.7,-11.3 104.9,-10.517 104.9,-8.95Z" style="fill:rgb(50,56,62);fill-rule:nonzero;"/>
            </g>
            <g transform="matrix(8.53031,0,0,8.01113,586.508,332.826)">
                <path d="M131.8,-12.4C131.8,-9.133 133.033,-7.5 135.5,-7.5C137.1,-7.5 138.433,-7.817 139.5,-8.45C140,-8.45 140.408,-7.592 140.725,-5.875C141.042,-4.158 141.2,-2.992 141.2,-2.375C141.2,-1.758 141.117,-1.35 140.95,-1.15C139.183,-0.05 136.767,0.5 133.7,0.5C130.633,0.5 128.025,-0.642 125.875,-2.925C123.725,-5.208 122.65,-8.325 122.65,-12.275C122.65,-16.225 123.708,-19.417 125.825,-21.85C127.942,-24.283 130.758,-25.5 134.275,-25.5C137.792,-25.5 140.233,-24.65 141.6,-22.95C141.9,-22.583 142.05,-22.042 142.05,-21.325C142.05,-20.608 141.917,-19.733 141.65,-18.7C141.05,-16.567 140.267,-15.333 139.3,-15C139.167,-14.967 138.975,-14.95 138.725,-14.95C138.475,-14.95 138.167,-15.15 137.8,-15.55C136.5,-16.85 135.458,-17.5 134.675,-17.5C133.892,-17.5 133.217,-17.1 132.65,-16.3C132.083,-15.5 131.8,-14.2 131.8,-12.4Z" style="fill:rgb(50,56,62);fill-rule:nonzero;"/>
            </g>
            <g transform="matrix(8.53031,0,0,8.01113,586.508,332.826)">
                <path d="M146.975,-2.95C144.892,-5.25 143.85,-8.433 143.85,-12.5C143.85,-16.567 144.892,-19.75 146.975,-22.05C149.058,-24.35 151.867,-25.5 155.4,-25.5C158.933,-25.5 161.733,-24.35 163.8,-22.05C165.867,-19.75 166.9,-16.567 166.9,-12.5C166.9,-8.433 165.867,-5.25 163.8,-2.95C161.733,-0.65 158.933,0.5 155.4,0.5C151.867,0.5 149.058,-0.65 146.975,-2.95ZM155.425,-17.15C153.542,-17.15 152.6,-15.617 152.6,-12.55C152.6,-9.483 153.542,-7.95 155.425,-7.95C157.308,-7.95 158.25,-9.483 158.25,-12.55C158.25,-15.617 157.308,-17.15 155.425,-17.15Z" style="fill:rgb(50,56,62);fill-rule:nonzero;"/>
            </g>
            <g transform="matrix(8.53031,0,0,8.01113,586.508,332.826)">
                <path d="M180.9,-0.3C180.9,-0.067 179.7,0.05 177.3,0.05C173.967,-0.05 172.3,-0.233 172.3,-0.5L172.3,-16.7L171,-16.7C170.133,-16.7 169.567,-17.433 169.3,-18.9C169.233,-19.333 169.2,-19.767 169.2,-20.2C169.2,-21.233 169.4,-22.267 169.8,-23.3C170.4,-24.767 171.333,-25.5 172.6,-25.5C173.867,-25.5 175,-25.2 176,-24.6C177,-24 177.667,-23.4 178,-22.8C180.1,-24.6 182.6,-25.5 185.5,-25.5C188.4,-25.5 190.5,-24.717 191.8,-23.15C193.1,-21.583 193.75,-19.017 193.75,-15.45L193.75,-0.45C193.75,-0.05 192.325,0.15 189.475,0.15C186.625,0.15 185.2,-0.05 185.2,-0.45L185.2,-14.9C185.2,-16.567 184.617,-17.4 183.45,-17.4C183.117,-17.4 182.65,-17.258 182.05,-16.975C181.45,-16.692 181.067,-16.483 180.9,-16.35L180.9,-0.3Z" style="fill:rgb(50,56,62);fill-rule:nonzero;"/>
            </g>
        </g>
    </g>
</svg>
